<?xml version="1.0" encoding="UTF-8"?>
<svg xmlns="http://www.w3.org/2000/svg" width="25" height="26" viewBox="0 0 25 26" fill="none">
  <path fill-rule="evenodd" clip-rule="evenodd" d="M1.335 6.987C1.84 5.85 2.555 4.859 3.392 3.96c1.895-2.03 4.19-3.33 6.905-3.774 3.801-.62 7.203.295 10.144 2.883.185.164.231.26.03.462-1.038 1.039-2.06 2.095-3.087 3.145-.105.107-.176.238-.363.064-2.588-2.425-6.814-2.397-9.564.218-.944.898-1.616 1.974-2.055 3.207-.064-.042-.132-.08-.192-.128l-3.874-3.05v-.001z" fill="#D7282A"></path>
  <path fill-rule="evenodd" clip-rule="evenodd" d="M5.37 15.118c.372.963.832 1.874 1.518 2.648 1.742 1.968 3.902 2.816 6.49 2.541 1.202-.127 2.298-.544 3.321-1.183.099.09.192.185.296.268 1.197.956 2.397 1.91 3.596 2.866a10.233 10.233 0 0 1-4.64 2.592c-4.14 1.07-7.957.394-11.346-2.34a11.723 11.723 0 0 1-3.28-4.18l4.045-3.212z" fill="#45AC43"></path>
  <path fill-rule="evenodd" clip-rule="evenodd" d="M20.592 22.258c-1.2-.954-2.399-1.909-3.597-2.865-.104-.083-.197-.179-.295-.269.812-.633 1.49-1.382 1.934-2.334.177-.38.302-.777.42-1.179.08-.277.056-.384-.28-.381-1.995.017-3.99.008-5.987.008-.281 0-.422-.15-.423-.447 0-1.384.007-2.766-.006-4.15-.002-.266.043-.369.338-.367 3.68.01 7.362.008 11.043.003.199 0 .323.015.358.262.458 3.292.09 6.437-1.595 9.342-.515.89-1.136 1.702-1.912 2.377h.002z" fill="#5D7FBE"></path>
  <path fill-rule="evenodd" clip-rule="evenodd" d="m5.37 15.118-4.045 3.211C.666 17.077.287 15.733.11 14.332c-.307-2.427.03-4.762 1.038-6.989.055-.122.125-.237.188-.356l3.874 3.05c.06.047.128.085.192.128-.54 1.647-.514 3.299-.03 4.952z" fill="#F4C300"></path>
</svg>
